# xmcd CD database file
#
# Track frame offsets:
#	150
#	19963
#	39680
#	61608
#	86540
#	114282
#	133367
#	153572
#	175132
#
# Disc length: 3057 seconds
#
# Revision: 0
# Processed by: cddbd v1.5.2PL0 Copyright (c) Steve Scherf et al.
# Submitted via: CDex 1.50
#
DISCID=710bef09
DTITLE=Portico Quartet - Knee-Deep In The North Sea
DYEAR=2007
DGENRE=Jazz
TTITLE0=News From Verona
TTITLE1=Zavodovski Island
TTITLE2=Knee-Deep In The North Sea
TTITLE3=Too Many Cooks
TTITLE4=Steps In The Wrong Direction
TTITLE5=Monsoon: Top To Bottom
TTITLE6=The Kon Tiki Expedition
TTITLE7=Cittàgazze
TTITLE8=Pompidou
EXTD=YEAR: 2007
EXTT0=
EXTT1=
EXTT2=
EXTT3=
EXTT4=
EXTT5=
EXTT6=
EXTT7=
EXTT8=
PLAYORDER=
